<svg xmlns="http://www.w3.org/2000/svg" xmlns:xlink="http://www.w3.org/1999/xlink" version="1.1"  
 x="0px" y="0px"  viewBox="0 0 100 125" enable-background="new 0 0 100 100" xml:space="preserve"><path d="M80.709,39.028c-4.607-12.753-16.625-21.236-30.285-21.236c-12.584,0-23.936,7.278-29.214,18.63  c-8.218,1.415-14.288,8.536-14.288,16.99c0,9.013,6.953,16.433,15.775,17.185c1.378,5.456,6.317,9.4,12.082,9.4  c1.021,0,2.035-0.124,3.017-0.369c4.007,1.712,8.251,2.58,12.628,2.58c4.537,0,8.911-0.921,13.019-2.736  c1.73,1.037,3.692,1.583,5.729,1.583c6.178,0,11.2-5.022,11.2-11.199c0-0.123-0.002-0.245-0.005-0.365  c0.435-0.576,0.808-1.188,1.124-1.835c6.677-1.39,11.586-7.332,11.586-14.245C93.078,46.184,87.741,40.094,80.709,39.028z   M36.424,66.053c-0.49,0.489-1.285,0.489-1.776,0l-9.267-9.268l-4.037-4.036c-0.49-0.489-0.49-1.287,0-1.775l4.037-4.036l9.267-9.27  c0.491-0.49,1.285-0.49,1.776,0l3.148,3.148c0.49,0.492,0.49,1.286,0,1.777l-8.379,8.38c-0.491,0.49-0.491,1.286,0,1.776l8.379,8.38  c0.49,0.49,0.49,1.284,0,1.774L36.424,66.053z M44.787,73.103c-0.238,0.465-0.745,0.683-1.134,0.484L38.375,70.9  c-0.389-0.198-0.512-0.736-0.274-1.203l19.9-39.077c0.237-0.468,0.746-0.684,1.136-0.487l5.278,2.688  c0.39,0.199,0.511,0.738,0.272,1.205L44.787,73.103z M81.443,52.749l-4.036,4.036l-9.268,9.268c-0.489,0.489-1.284,0.489-1.774,0  l-3.148-3.148c-0.49-0.49-0.49-1.284,0-1.774l8.379-8.38c0.49-0.49,0.49-1.286,0-1.776l-8.379-8.379c-0.49-0.492-0.49-1.287,0-1.777  l3.148-3.148c0.49-0.49,1.285-0.49,1.774,0l9.269,9.269l4.035,4.036C81.935,51.462,81.935,52.26,81.443,52.749z" fill="#4e9c72"/></svg>